<?xml version="1.0" standalone="no"?>
<!DOCTYPE svg PUBLIC "-//W3C//DTD SVG 20010904//EN"
 "http://www.w3.org/TR/2001/REC-SVG-20010904/DTD/svg10.dtd">
<svg version="1.0" xmlns="http://www.w3.org/2000/svg"
 width="260.000000pt" height="260.000000pt" viewBox="0 0 260.000000 260.000000"
 preserveAspectRatio="xMidYMid meet">
<metadata>
Created by potrace 1.11, written by Peter Selinger 2001-2013
</metadata>
<g transform="translate(0.000000,260.000000) scale(0.100000,-0.100000)"
fill="#000000" stroke="none">
<path d="M320 1790 l0 -160 -160 0 -160 0 0 -85 0 -85 160 0 160 0 0 -160 0
-160 85 0 85 0 0 160 0 160 160 0 160 0 0 85 0 85 -160 0 -160 0 0 160 0 160
-85 0 -85 0 0 -160z"/>
<path d="M2110 1790 l0 -160 -160 0 -160 0 0 -85 0 -85 160 0 160 0 0 -160 0
-160 85 0 85 0 0 160 0 160 160 0 160 0 0 85 0 85 -160 0 -160 0 0 160 0 160
-85 0 -85 0 0 -160z"/>
<path d="M820 735 l0 -85 480 0 480 0 0 85 0 85 -480 0 -480 0 0 -85z"/>
</g>
</svg>
